<svg id="Layer_1" height="512" viewBox="0 0 512 512" width="512" xmlns="http://www.w3.org/2000/svg" data-name="Layer 1"><path d="m217.979 438.4-93.834-147.125a12 12 0 0 1 3.665-16.57l100.29 157.246z" fill="#f3a4ef"/><path d="m293.1 438.371-10.09-6.5 102.7-159.49a12 12 0 0 1 3.59 16.589z" fill="#f3a4ef"/><path d="m272.33 346.55q-8.04.795-16.29.8l-.08 32.68 14.32.01 12.86-34.92q-5.34.9-10.81 1.43z" fill="#ccd3df"/><path d="m256.04 347.35-.08 32.68h-14.24c-1.36-4.64-12.06-32.8-12.86-34.91q5.895.99 11.92 1.54 7.515.69 15.22.69z" fill="#e2e4ed"/><path d="m241.72 380.03-21.35-.01-.12.05a277.232 277.232 0 0 0 -24.4-44.02 163.613 163.613 0 0 0 33.01 9.07c.8 2.11 11.5 30.27 12.86 34.91z" fill="#ccd3df"/><path d="m303.72 455.52h-95.76v28.25a16.593 16.593 0 0 0 16.59 16.59h62.9a16.593 16.593 0 0 0 16.59-16.59v-28.25z" fill="#b0b5ca"/><path d="m296.71 222.39c0 17.09 14.99 30.97 32.14 31.69 15.43.63 30.06-11.8 34.36-26.81-11.97 63.93-44.5 105.13-44.5 105.13s-.95 1.29-2.56 3.65a163.613 163.613 0 0 1 -33.01 9.07q-5.34.9-10.81 1.43c.66-1.91 18.15-53.44 24.24-123.63a.014.014 0 0 0 0-.02c.06-.31.11-.63.14-.95z" fill="#cae6ee"/><path d="m146.36 211.46c2 17.24 18.55 32.65 36.28 31.91 17.34-.72 31.93-13.39 32.46-29.95a35.648 35.648 0 0 0 .5 3.99c3.45 37.17 11.2 80.06 25.18 129.2v.05q-6.03-.555-11.92-1.54a163.613 163.613 0 0 1 -33.01-9.07c-1.61-2.36-2.56-3.65-2.56-3.65s-37.96-48.08-46.95-120.94z" fill="#cae6ee"/><path d="m296.57 222.9c5.44-62.74 1.78-140.4-31.16-210.89l.01-.1a164.265 164.265 0 0 1 48.26 10.09l-.07.19c52.21 73.58 59.34 142.61 51.01 196.78q-.645 4.215-1.41 8.3c-4.3 15.01-18.93 27.44-34.36 26.81-17.15-.72-32.14-14.6-32.14-31.69v-.44c-.03.32-.08.64-.14.95z" fill="#e9fbff"/><path d="m146.36 211.46h-.02c-.16-1.28-.31-2.56-.45-3.85-5.65-52.34 3.89-116.97 52.59-185.54l-.04-.11a164.561 164.561 0 0 1 57.56-10.32h.36s-52.96 55.71-41.33 199.26c-.01.84.02 1.68.07 2.52-.53 16.56-15.12 29.23-32.46 29.95-17.73.74-34.28-14.67-36.28-31.91z" fill="#e9fbff"/><g fill="#3090fc"><path d="m364.71 218.98c-1.59 13.82 5.89 26.18 22.5 26.97.52.02 1.04.04 1.55.04 15.65 0 24.69-11.57 28.41-24.81l.04.01a167.288 167.288 0 0 1 -21.46 49.44l-.82 1.28a167.272 167.272 0 0 1 -78.78 64.14c1.61-2.36 2.56-3.65 2.56-3.65s32.53-41.2 44.5-105.13q.765-4.08 1.41-8.3z"/><path d="m296.57 222.92c-6.09 70.19-23.58 121.72-24.24 123.63q-8.04.795-16.29.8h-.04q-7.695 0-15.22-.69v-.05c-13.98-49.14-21.73-92.03-25.18-129.2 3.12 17.3 18.9 32.34 37.87 32.89l2.01.13c20.02.59 38.18-9.91 41.09-27.51z"/><path d="m146.34 211.46c8.99 72.86 46.95 120.94 46.95 120.94s.95 1.29 2.56 3.65a167.244 167.244 0 0 1 -77.83-62.7l-.27-.42a167.459 167.459 0 0 1 -24.27-57.28c3.33 11.1 13.14 19.9 27.35 19.9.56 0 1.13-.01 1.71-.04 17.27-.84 24.96-14.09 23.35-27.9.14 1.29.29 2.57.45 3.85z"/></g><path d="m422.39 179.5a169.444 169.444 0 0 1 -5.18 41.69l-.04-.01c-3.72 13.24-12.76 24.81-28.41 24.81-.51 0-1.03-.02-1.55-.04-16.61-.79-24.09-13.15-22.5-26.97l-.09-.01c8.33-54.17 1.2-123.2-51.01-196.78l.07-.19a167.852 167.852 0 0 1 108.71 157.5z" fill="#49bdff"/><path d="m215.11 211.82c-.03-.31-.06-.61-.08-.92-11.63-143.55 41.33-199.26 41.33-199.26q4.56.015 9.06.27l-.01.1c32.94 70.49 36.6 148.15 31.16 210.89a.014.014 0 0 1 0 .02c-2.91 17.6-21.07 28.1-41.09 27.51l-2.01-.13c-18.97-.55-34.75-15.59-37.87-32.89q-.27-2.82-.49-5.59z" fill="#49bdff"/><path d="m198.44 21.96.04.11c-48.7 68.57-58.24 133.2-52.59 185.54 1.61 13.81-6.08 27.06-23.35 27.9-.58.03-1.15.04-1.71.04-14.21 0-24.02-8.8-27.35-19.9a170.088 170.088 0 0 1 -3.87-36.15 167.837 167.837 0 0 1 108.83-157.54z" fill="#49bdff"/><path d="m283.14 345.12c-.8 2.11-11.51 30.31-12.86 34.92l21.35.01.11.05a276.451 276.451 0 0 1 24.41-44.05 163.613 163.613 0 0 1 -33.01 9.07z" fill="#e2e4ed"/><path d="m229.6 430.09v.09 25.34h25.21v-25.34-.09z" fill="#e8a467"/><path d="m281.09 430.09v.09 25.34h22.63.32v-25.43z" fill="#e8a467"/><path d="m254.81 430.09v.09 25.34h26.28v-25.34-.09z" fill="#edb740"/><path d="m207.96 430.09v25.43h.15 21.49v-25.34-.09z" fill="#edb740"/><path d="m231.96 483.77v-28.25h-24v28.25a16.593 16.593 0 0 0 16.59 16.59h24a16.593 16.593 0 0 1 -16.59-16.59z" fill="#ccd3df"/><path d="m181.759 314.97a168.106 168.106 0 0 1 -39.739-41.62l-.27-.42a167.544 167.544 0 0 1 -18.66-37.46c-.184.012-.363.031-.55.04-.58.03-1.15.04-1.71.04-14.21 0-24.02-8.8-27.35-19.9a167.459 167.459 0 0 0 24.27 57.28l.27.42a167.244 167.244 0 0 0 77.83 62.7c-1.61-2.36-2.56-3.65-2.56-3.65a172.89 172.89 0 0 1 -11.531-17.43z" fill="#49bdff"/><path d="m120.83 235.55c.56 0 1.13-.01 1.71-.04.187-.009.366-.028.55-.04a167.523 167.523 0 0 1 -5.61-19.82 170.088 170.088 0 0 1 -3.87-36.15 168.078 168.078 0 0 1 72.324-138.478q5.789-9.422 12.546-18.952l-.04-.11a167.837 167.837 0 0 0 -108.83 157.54 170.088 170.088 0 0 0 3.87 36.15c3.33 11.1 13.14 19.9 27.35 19.9z" fill="#92e3ff"/><path d="m220.63 380.021c6.92 15.4 12.906 33.19 14.235 50.521l11.965.082c-1.313-17.129-6.625-35.35-13.042-50.6z" fill="#867af4"/><path d="m278.206 380.042c-6.414 15.243-11.723 33.458-13.036 50.582l11.965-.082c1.328-17.321 7.308-35.095 14.223-50.493z" fill="#867af4"/></svg>